<svg preserveAspectRatio="none" width="100%" height="100%" overflow="visible" style="display: block;" viewBox="0 0 16 16" fill="none" xmlns="http://www.w3.org/2000/svg">
<g id="CaretUp">
<path id="Vector" d="M13.4619 10.1912C13.424 10.2826 13.36 10.3607 13.2778 10.4157C13.1956 10.4706 13.0989 10.5 13 10.5H3C2.90105 10.5001 2.80431 10.4708 2.72201 10.4159C2.63971 10.3609 2.57556 10.2828 2.53769 10.1914C2.49981 10.1 2.48991 9.99939 2.50924 9.90235C2.52856 9.8053 2.57624 9.71618 2.64625 9.64625L7.64625 4.64625C7.69269 4.59976 7.74783 4.56288 7.80853 4.53772C7.86923 4.51256 7.93429 4.49961 8 4.49961C8.06571 4.49961 8.13077 4.51256 8.19147 4.53772C8.25217 4.56288 8.30731 4.59976 8.35375 4.64625L13.3538 9.64625C13.4237 9.71621 13.4712 9.80534 13.4905 9.90235C13.5097 9.99936 13.4998 10.0999 13.4619 10.1912Z" fill="var(--fill-0, #14774F)"/>
</g>
</svg>
